<?xml version="1.0" encoding="UTF-8" standalone="no"?>
<svg version="1.1" width="360" height="320" viewBox="0 0 360 320" xml:space="preserve" id="svg5"
    xmlns="http://www.w3.org/2000/svg" xmlns:svg="http://www.w3.org/2000/svg">
    <defs id="defs5" />
    <g transform="matrix(1.1509615,0,0,1.1509615,180.0625,161.7209)" id="logo-logo">
        <g paint-order="stroke" id="g5">
            <g transform="scale(1.1693591)" id="g4">
                <g paint-order="stroke" id="g3">
                    <g transform="translate(-0.001,-59.0495)" id="g1">
                        <path
                            style="opacity:1;fill:#e0e4ee;fill-rule:nonzero;stroke:none;stroke-width:1;stroke-linecap:butt;stroke-linejoin:miter;stroke-miterlimit:4;stroke-dasharray:none;stroke-dashoffset:0"
                            paint-order="stroke" transform="translate(-249.382,-190.483)"
                            d="m 249.383,177 c 43.781,0 79.271,66.061 79.271,66.061 h 46.915 c 0,0 -56.495,-105.156 -126.187,-105.156 -69.691,0 -126.187,105.156 -126.187,105.156 H 170.11 C 170.111,243.062 205.602,177 249.383,177 Z"
                            stroke-linecap="round" id="path1" />
                    </g>
                    <g transform="translate(0.001,37.5845)" id="g2">
                        <path
                            style="opacity:1;fill:#5bd3c7;fill-rule:nonzero;stroke:none;stroke-width:1;stroke-linecap:butt;stroke-linejoin:miter;stroke-miterlimit:4;stroke-dasharray:none;stroke-dashoffset:0"
                            paint-order="stroke" transform="translate(-249.384,-287.117)"
                            d="m 285.446,256.003 c -3.106,5.248 -8.809,8.777 -15.35,8.777 -9.857,0 -17.849,-7.985 -17.849,-17.843 0,-9.854 7.991,-17.845 17.849,-17.845 4.758,0 9.069,1.874 12.268,4.909 -5.831,-12.366 -18.403,-20.927 -32.981,-20.927 -20.14,0 -36.463,16.324 -36.463,36.457 0,20.138 16.323,36.453 36.463,36.453 h 58.641 c -14.499,17.466 -35.401,36.078 -58.641,36.078 -43.781,0 -79.271,-66.061 -79.271,-66.061 h -46.915 c 0,0 56.496,105.159 126.187,105.159 69.691,0 126.187,-105.159 126.187,-105.159 h -90.125 z"
                            stroke-linecap="round" id="path2" />
                    </g>
                </g>
            </g>
        </g>
    </g>
</svg>